<?xml version="1.0" encoding="UTF-8"?><svg id="Layer_2" xmlns="http://www.w3.org/2000/svg" viewBox="0 0 249.02 84.71" height="60px" width="auto"><defs><style>.cls-1{fill:#f469f5;}.cls-2{fill:#fb97f9;}.cls-3{fill:#812184;}.cls-4{fill:#333;}.cls-5{fill:#c000c2;}.cls-6{fill:#d932de;}.cls-7{fill:#e330e8;}.cls-8{fill:#4d4d4d;}</style></defs><g id="Layer_1-2"><g><g><path class="cls-4" d="m91.58,51.12l3.16-4.22c3.28,2.65,6.62,4.48,11.17,4.48,4.97,0,7.43-2.65,7.43-5.88,0-3.89-4.47-5.61-8.65-7.17-5.3-1.94-11.28-4.55-11.28-10.93,0-6.05,4.85-10.74,13.05-10.74,4.71,0,8.83,1.93,11.76,4.25l-3.06,4.1c-2.6-1.92-5.28-3.37-8.63-3.37-4.77,0-6.97,2.54-6.97,5.42,0,3.6,4.11,4.97,8.4,6.56,5.46,2.06,11.53,4.28,11.53,11.48,0,6.13-4.87,11.25-13.8,11.25-5.37,0-10.56-2.28-14.11-5.25Z"/><path class="cls-4" d="m121.76,36.58c0-12.31,8.3-19.9,17-19.9,9.65,0,15.1,6.93,15.1,17.75,0,1.35-.11,2.7-.3,3.64h-25.47c.46,8.01,5.36,13.21,12.57,13.21,3.63,0,6.61-1.17,9.41-3.02l2.29,4.2c-3.32,2.17-7.35,3.92-12.49,3.92-10.08,0-18.11-7.37-18.11-19.8Zm26.44-3.1c0-7.58-3.41-11.7-9.32-11.7-5.32,0-10.07,4.27-10.85,11.7h20.17Z"/><path class="cls-4" d="m156.94,36.58c0-12.31,8.3-19.9,17-19.9,9.65,0,15.1,6.93,15.1,17.75,0,1.35-.11,2.7-.3,3.64h-25.47c.46,8.01,5.36,13.21,12.57,13.21,3.63,0,6.61-1.17,9.41-3.02l2.29,4.2c-3.32,2.17-7.35,3.92-12.49,3.92-10.08,0-18.11-7.37-18.11-19.8Zm26.44-3.1c0-7.58-3.41-11.7-9.32-11.7-5.32,0-10.07,4.27-10.85,11.7h20.17Z"/><path class="cls-4" d="m193.77,0h6.29v37.55h.21l16.15-19.93h7.1l-12.67,15.2,14.34,22.62h-7l-11.03-18.18-7.1,8.25v9.93h-6.29V0Z"/><path class="cls-4" d="m228.18,17.61h5.29l.54,6.89h.21c2.63-4.8,6.5-7.82,10.76-7.82,1.67,0,2.85.21,4.04.78l-1.2,5.62c-1.3-.41-2.15-.62-3.67-.62-3.2,0-7.01,2.3-9.57,8.7v24.29h-6.4V17.61Z"/></g><g><path class="cls-8" d="m103.48,68.33h6.7v.74h-5.84v4.9h4.94v.74h-4.94v5.92h-.86v-12.3Z"/><path class="cls-8" d="m112.05,68.77c0-.46.34-.73.75-.73s.75.27.75.73c0,.43-.34.73-.75.73s-.75-.3-.75-.73Zm.32,2.9h.82v8.96h-.82v-8.96Z"/><path class="cls-8" d="m116.2,71.67h.7l.09,1.39h.04c.91-.91,1.85-1.61,3.08-1.61,1.85,0,2.71,1.12,2.71,3.44v5.75h-.82v-5.64c0-1.9-.6-2.8-2.04-2.8-1.07,0-1.84.56-2.93,1.68v6.76h-.82v-8.96Z"/><path class="cls-8" d="m125.22,76.16c0-2.89,1.84-4.72,3.98-4.72,1.07,0,1.81.41,2.7,1.1l-.04-1.65v-3.7h.82v13.42h-.7l-.09-1.16h-.04c-.73.74-1.73,1.38-2.92,1.38-2.25,0-3.71-1.67-3.71-4.69Zm6.63,2.48v-5.31c-.94-.84-1.73-1.15-2.61-1.15-1.78,0-3.15,1.74-3.15,3.99,0,2.39,1.06,3.96,2.96,3.96.99,0,1.87-.52,2.81-1.48Z"/><path class="cls-8" d="m138.57,84.52l.19-.71c.18.07.48.15.73.15,1.09,0,1.84-1.01,2.3-2.38l.25-.78-3.68-9.13h.89l2.16,5.63c.29.76.65,1.72.97,2.52h.07c.29-.79.57-1.75.83-2.52l1.91-5.63h.84l-3.54,10.09c-.5,1.49-1.41,2.95-3.02,2.95-.33,0-.67-.08-.91-.19Z"/><path class="cls-8" d="m147.03,76.16c0-3,1.87-4.72,4.02-4.72s4.02,1.72,4.02,4.72-1.87,4.69-4.02,4.69-4.02-1.72-4.02-4.69Zm7.18,0c0-2.36-1.35-3.99-3.16-3.99s-3.16,1.63-3.16,3.99,1.35,3.96,3.16,3.96,3.16-1.6,3.16-3.96Z"/><path class="cls-8" d="m157.43,77.42v-5.75h.82v5.64c0,1.9.6,2.8,2.04,2.8,1.07,0,1.84-.56,2.89-1.83v-6.61h.82v8.96h-.7l-.09-1.5h-.04c-.88,1.03-1.81,1.72-3.04,1.72-1.85,0-2.71-1.12-2.71-3.44Z"/><path class="cls-8" d="m167.02,71.67h.7l.09,1.67h.04c.61-1.1,1.48-1.9,2.55-1.9.33,0,.59.04.89.19l-.19.75c-.3-.11-.47-.15-.81-.15-.81,0-1.76.61-2.44,2.31v6.09h-.82v-8.96Z"/><path class="cls-8" d="m176.67,71.67h.7l.09,1.39h.04c.91-.91,1.85-1.61,3.08-1.61,1.85,0,2.71,1.12,2.71,3.44v5.75h-.82v-5.64c0-1.9-.6-2.8-2.04-2.8-1.07,0-1.84.56-2.93,1.68v6.76h-.82v-8.96Z"/><path class="cls-8" d="m185.65,76.16c0-2.92,1.9-4.72,3.91-4.72,2.12,0,3.43,1.51,3.43,4.15,0,.22,0,.45-.05.67h-6.44c.03,2.26,1.35,3.88,3.37,3.88.97,0,1.74-.32,2.41-.79l.34.63c-.71.44-1.51.88-2.83.88-2.29,0-4.14-1.76-4.14-4.69Zm6.56-.58c0-2.29-1.04-3.43-2.65-3.43-1.52,0-2.89,1.28-3.07,3.43h5.72Z"/><path class="cls-8" d="m197.15,75.94l-2.78-4.28h.91l1.44,2.28c.29.49.62.98.95,1.47h.07c.32-.49.61-.98.93-1.47l1.39-2.28h.87l-2.78,4.35,3.03,4.61h-.91l-1.59-2.45c-.33-.56-.69-1.12-1.06-1.64h-.07c-.36.52-.68,1.08-1.04,1.64l-1.53,2.45h-.87l3.03-4.68Z"/><path class="cls-8" d="m203.79,78.15v-5.77h-1.4v-.64l1.42-.08.1-2.59h.7v2.59h2.6v.72h-2.6v5.83c0,1.14.29,1.92,1.52,1.92.33,0,.8-.14,1.12-.28l.22.67c-.52.18-1.09.34-1.46.34-1.72,0-2.22-1.09-2.22-2.7Z"/><path class="cls-8" d="m213.14,71.67h.7l.09,1.67h.04c.61-1.1,1.48-1.9,2.55-1.9.33,0,.59.04.89.19l-.19.75c-.3-.11-.47-.15-.81-.15-.81,0-1.76.61-2.44,2.31v6.09h-.82v-8.96Z"/><path class="cls-8" d="m218.01,76.16c0-3,1.87-4.72,4.02-4.72s4.02,1.72,4.02,4.72-1.87,4.69-4.02,4.69-4.02-1.72-4.02-4.69Zm7.18,0c0-2.36-1.35-3.99-3.16-3.99s-3.16,1.63-3.16,3.99,1.35,3.96,3.16,3.96,3.16-1.6,3.16-3.96Z"/><path class="cls-8" d="m228.51,79.43v-12.22h.82v12.33c0,.4.16.59.39.59.08,0,.15,0,.34-.04l.14.67c-.17.05-.32.09-.59.09-.72,0-1.09-.44-1.09-1.43Z"/><path class="cls-8" d="m231.78,76.16c0-2.92,1.9-4.72,3.91-4.72,2.12,0,3.43,1.51,3.43,4.15,0,.22,0,.45-.05.67h-6.44c.03,2.26,1.35,3.88,3.37,3.88.97,0,1.74-.32,2.41-.79l.34.63c-.71.44-1.51.88-2.83.88-2.29,0-4.14-1.76-4.14-4.69Zm6.56-.58c0-2.29-1.04-3.43-2.65-3.43-1.52,0-2.89,1.28-3.07,3.43h5.72Z"/><path class="cls-8" d="m240.87,80.02c0-.54.38-.87.79-.87s.79.32.79.87c0,.51-.38.83-.79.83s-.79-.32-.79-.83Z"/></g><g><path class="cls-3" d="m41.9,84.69l-.02-8.35v-.02c.47.12.92-.11,1.4-.1,2.12.03,4.2-.32,6.26-.79,4.88-1.13,9.3-3.25,13.23-6.34,3.78-2.97,6.8-6.6,9.04-10.86,2.09-4,3.35-8.23,3.73-12.74.23-2.66.18-5.3-.21-7.93-.6-4.07-1.92-7.92-3.94-11.52-2.15-3.84-4.98-7.11-8.39-9.87-2.86-2.31-6.02-4.08-9.47-5.35-3.76-1.38-7.64-2.06-11.64-2.06v-.02c0-2.8,0-5.6,0-8.41,1.49-.14,2.95.07,4.42.22,2.15.22,4.27.58,6.36,1.14,6.49,1.75,12.27,4.83,17.29,9.3,5.83,5.19,9.91,11.52,12.26,18.95.87,2.73,1.44,5.52,1.67,8.4.13,1.64.27,3.27.24,4.91-.1,5.51-1.21,10.81-3.38,15.87-2.23,5.21-5.38,9.81-9.46,13.73-6.06,5.81-13.21,9.56-21.47,11.14-2.61.5-5.25.79-7.91.7Z"/><path class="cls-5" d="m41.88,76.32c0-2.25,0-4.5,0-6.74h.01c1.8-.06,3.6-.21,5.36-.57,4.62-.94,8.75-2.95,12.3-6.03,3.26-2.82,5.73-6.24,7.37-10.25,1.83-4.47,2.35-9.11,1.76-13.85-.41-3.3-1.47-6.42-3.1-9.34-1.77-3.17-4.02-5.93-6.89-8.17-4.94-3.85-10.53-5.82-16.8-5.86h-.01c0-2.25,0-4.5,0-6.76,4,0,7.89.68,11.64,2.06,3.45,1.27,6.61,3.04,9.47,5.35,3.42,2.76,6.24,6.03,8.39,9.87,2.02,3.6,3.34,7.45,3.94,11.52.39,2.63.43,5.27.21,7.93-.38,4.51-1.64,8.74-3.73,12.74-2.23,4.27-5.25,7.89-9.04,10.86-3.94,3.1-8.35,5.21-13.23,6.34-2.06.48-4.14.82-6.26.79-.47,0-.92.22-1.4.1Z"/><path class="cls-6" d="m41.9,69.58v-5.51s.01.01.01.01c11.67.28,22.16-9.82,21.59-22.53-.49-11.03-9.34-20.48-21.6-20.69h-.03c0-1.78.01-3.57.02-5.36,6.27.04,11.86,2.01,16.8,5.86,2.87,2.24,5.12,4.99,6.89,8.17,1.63,2.92,2.7,6.05,3.1,9.34.58,4.75.07,9.39-1.76,13.85-1.64,4.01-4.12,7.43-7.37,10.25-3.55,3.08-7.68,5.09-12.3,6.03-1.77.36-3.56.51-5.36.57Z"/><path class="cls-7" d="m41.91,64.08c0-1.45,0-2.9,0-4.35,0,0,0-.02,0-.02.73-.01,1.45-.04,2.18-.13,4.64-.59,8.41-2.73,11.31-6.37,2.88-3.62,4.05-7.76,3.62-12.38-.38-3.99-1.94-7.44-4.72-10.29-3.38-3.45-7.5-5.24-12.38-5.17,0-.04-.02-.08-.03-.11.01-1.47.03-2.93.04-4.4,12.25.21,21.1,9.66,21.6,20.69.57,12.71-9.92,22.81-21.59,22.53Z"/><path class="cls-1" d="m41.91,59.71c0-2.78-.01-5.57-.02-8.35h0c1.13-.18,2.27-.24,3.35-.7,3.75-1.58,5.9-5.16,5.37-9.12-.59-4.42-4.52-7.59-8.71-7.41h0c0-2.92,0-5.84,0-8.76,4.88-.08,9,1.72,12.38,5.17,2.79,2.84,4.35,6.3,4.72,10.29.44,4.62-.74,8.76-3.62,12.38-2.89,3.64-6.67,5.78-11.31,6.37-.73.09-1.45.12-2.18.13Z"/><path class="cls-2" d="m41.89,51.36c0-5.74,0-11.48,0-17.22,4.19-.18,8.12,2.99,8.71,7.41.53,3.97-1.62,7.55-5.37,9.12-1.08.45-2.22.52-3.35.69Z"/><path class="cls-3" d="m42.24,84.69l.02-8.35v-.02c-.47.12-.92-.11-1.4-.1-2.12.03-4.2-.32-6.26-.79-4.88-1.13-9.3-3.25-13.23-6.34-3.78-2.97-6.8-6.6-9.04-10.86-2.09-4-3.35-8.23-3.73-12.74-.23-2.66-.18-5.3.21-7.93.6-4.07,1.92-7.92,3.94-11.52,2.15-3.84,4.98-7.11,8.39-9.87,2.86-2.31,6.02-4.08,9.47-5.35,3.76-1.38,7.64-2.06,11.64-2.06v-.02c0-2.8,0-5.6,0-8.41-1.49-.14-2.95.07-4.42.22-2.15.22-4.27.58-6.36,1.14-6.49,1.75-12.27,4.83-17.29,9.3-5.83,5.19-9.91,11.52-12.26,18.95-.87,2.73-1.44,5.52-1.67,8.4-.13,1.64-.27,3.27-.24,4.91.1,5.51,1.21,10.81,3.38,15.87,2.23,5.21,5.38,9.81,9.46,13.73,6.06,5.81,13.21,9.56,21.47,11.14,2.61.5,5.25.79,7.91.7Z"/><path class="cls-5" d="m42.25,76.32c0-2.25,0-4.5,0-6.74h-.01c-1.8-.06-3.6-.21-5.36-.57-4.62-.94-8.75-2.95-12.3-6.03-3.26-2.82-5.73-6.24-7.37-10.25-1.83-4.47-2.35-9.11-1.76-13.85.41-3.3,1.47-6.42,3.1-9.34,1.77-3.17,4.02-5.93,6.89-8.17,4.94-3.85,10.53-5.82,16.8-5.86h.01c0-2.25,0-4.5,0-6.76-4,0-7.89.68-11.64,2.06-3.45,1.27-6.61,3.04-9.47,5.35-3.42,2.76-6.24,6.03-8.39,9.87-2.02,3.6-3.34,7.45-3.94,11.52-.39,2.63-.43,5.27-.21,7.93.38,4.51,1.64,8.74,3.73,12.74,2.23,4.27,5.25,7.89,9.04,10.86,3.94,3.1,8.35,5.21,13.23,6.34,2.06.48,4.14.82,6.26.79.47,0,.92.22,1.4.1Z"/><path class="cls-6" d="m42.23,69.58v-5.51s-.01.01-.01.01c-11.67.28-22.16-9.82-21.59-22.53.49-11.03,9.34-20.48,21.6-20.69h.03c0-1.78-.01-3.57-.02-5.36-6.27.04-11.86,2.01-16.8,5.86-2.87,2.24-5.12,4.99-6.89,8.17-1.63,2.92-2.7,6.05-3.1,9.34-.58,4.75-.07,9.39,1.76,13.85,1.64,4.01,4.12,7.43,7.37,10.25,3.55,3.08,7.68,5.09,12.3,6.03,1.77.36,3.56.51,5.36.57Z"/><path class="cls-7" d="m42.22,64.08c0-1.45,0-2.9,0-4.35,0,0,0-.02,0-.02-.73-.01-1.45-.04-2.18-.13-4.64-.59-8.41-2.73-11.31-6.37-2.88-3.62-4.05-7.76-3.62-12.38.38-3.99,1.94-7.44,4.72-10.29,3.38-3.45,7.5-5.24,12.38-5.17,0-.04.02-.08.03-.11-.01-1.47-.03-2.93-.04-4.4-12.25.21-21.1,9.66-21.6,20.69-.57,12.71,9.92,22.81,21.59,22.53Z"/><path class="cls-1" d="m42.22,59.71c0-2.78.01-5.57.02-8.35h0c-1.13-.18-2.27-.24-3.35-.7-3.75-1.58-5.9-5.16-5.37-9.12.59-4.42,4.52-7.59,8.71-7.41h0c0-2.92,0-5.84,0-8.76-4.88-.08-9,1.72-12.38,5.17-2.79,2.84-4.35,6.3-4.72,10.29-.44,4.62.74,8.76,3.62,12.38,2.89,3.64,6.67,5.78,11.31,6.37.73.09,1.45.12,2.18.13Z"/><path class="cls-2" d="m42.24,51.36c0-5.74,0-11.48,0-17.22-4.19-.18-8.12,2.99-8.71,7.41-.53,3.97,1.62,7.55,5.37,9.12,1.08.45,2.22.52,3.35.69Z"/></g></g></g></svg>